<svg width="50" height="50" viewBox="0 0 50 50" fill="none" xmlns="http://www.w3.org/2000/svg">
<path d="M36.6668 11.0625L24.896 4.72913C23.646 4.06246 22.1668 4.06246 20.9168 4.72913L9.16683 11.0625C8.31266 11.5416 7.771 12.4583 7.771 13.4583C7.771 14.4791 8.29183 15.3958 9.16683 15.8541L20.9377 22.1875C21.5627 22.5208 22.2502 22.6875 22.9168 22.6875C23.5835 22.6875 24.2918 22.5208 24.896 22.1875L36.6668 15.8541C37.521 15.3958 38.0627 14.4791 38.0627 13.4583C38.0627 12.4583 37.521 11.5416 36.6668 11.0625Z" fill="#F2C94C"/>
<path d="M19.0001 24.3958L8.06258 18.9374C7.20841 18.4999 6.25008 18.5624 5.43758 19.0416C4.64591 19.5416 4.16675 20.3958 4.16675 21.3333V31.6666C4.16675 33.4583 5.16675 35.0624 6.77091 35.8749L17.7084 41.3333C18.0834 41.5208 18.5001 41.6249 18.9167 41.6249C19.3959 41.6249 19.8959 41.4791 20.3334 41.2291C21.1251 40.7291 21.6042 39.8749 21.6042 38.9374V28.6041C21.5834 26.8124 20.5834 25.2083 19.0001 24.3958Z" fill="#F2C94C"/>
<path d="M41.6667 21.3333V26.4583C40.6667 26.1666 39.6042 26.0416 38.5417 26.0416C35.7083 26.0416 32.9375 27.0208 30.75 28.7708C27.75 31.1249 26.0417 34.6874 26.0417 38.5416C26.0417 39.5624 26.1667 40.5833 26.4375 41.5624C26.125 41.5208 25.8125 41.3958 25.5208 41.2083C24.7292 40.7291 24.25 39.8749 24.25 38.9374V28.6041C24.25 26.8124 25.25 25.2083 26.8333 24.3958L37.7708 18.9374C38.625 18.4999 39.5833 18.5624 40.3958 19.0416C41.1875 19.5416 41.6667 20.3958 41.6667 21.3333Z" fill="#F2C94C"/>
<path d="M45.1667 31.9166C43.3125 30.0624 40.8542 29.1249 38.4167 29.1666C36.0625 29.1874 33.7083 30.1249 31.9167 31.9166C30.6667 33.1458 29.8542 34.6874 29.4583 36.2916C29.2292 37.1666 29.1458 38.0624 29.2083 38.9583V39.0624C29.2083 39.2083 29.2292 39.3333 29.25 39.4999C29.25 39.4999 29.25 39.4999 29.2708 39.5208V39.5833C29.4583 41.6249 30.3333 43.6041 31.9167 45.1666C34.3333 47.5833 37.7292 48.3958 40.7917 47.6249C41.7083 47.3958 42.6042 47.0208 43.4375 46.5208C44.0625 46.1666 44.6458 45.7083 45.1667 45.1666C46.7292 43.6041 47.625 41.6249 47.8125 39.5624C47.8333 39.5624 47.8333 39.5208 47.8333 39.4999C47.875 39.3541 47.875 39.1874 47.875 39.0416C47.875 39.0208 47.8958 38.9791 47.8958 38.9374C48.0208 36.4166 47.1042 33.8333 45.1667 31.9166ZM42.1458 42.1041C41.5417 42.7083 40.5625 42.7083 39.9375 42.1041L38.5625 40.7291L37.1458 42.1458C36.5208 42.7708 35.5417 42.7708 34.9375 42.1458C34.3125 41.5416 34.3125 40.5624 34.9375 39.9374L36.3542 38.5208L34.9792 37.1458C34.375 36.5208 34.375 35.5416 34.9792 34.9374C35.6042 34.3124 36.5833 34.3124 37.2083 34.9374L38.5625 36.3124L39.875 34.9791C40.5 34.3749 41.4792 34.3749 42.1042 34.9791C42.7083 35.6041 42.7083 36.5833 42.1042 37.2083L40.7708 38.5208L42.1458 39.8749C42.7708 40.4999 42.7708 41.4791 42.1458 42.1041Z" fill="#F2C94C"/>
</svg>
