<svg width="50" height="50" viewBox="0 0 50 50" fill="none" xmlns="http://www.w3.org/2000/svg">
<path d="M36.6668 11.0625L24.896 4.72913C23.646 4.06246 22.1668 4.06246 20.9168 4.72913L9.16683 11.0625C8.31266 11.5416 7.771 12.4583 7.771 13.4583C7.771 14.4791 8.29183 15.3958 9.16683 15.8541L20.9377 22.1875C21.5627 22.5208 22.2502 22.6875 22.9168 22.6875C23.5835 22.6875 24.2918 22.5208 24.896 22.1875L36.6668 15.8541C37.521 15.3958 38.0627 14.4791 38.0627 13.4583C38.0627 12.4583 37.521 11.5416 36.6668 11.0625Z" fill="#6FCF97"/>
<path d="M19.0001 24.3958L8.06258 18.9374C7.20841 18.4999 6.25008 18.5624 5.43758 19.0416C4.64591 19.5416 4.16675 20.3958 4.16675 21.3333V31.6666C4.16675 33.4583 5.16675 35.0624 6.77091 35.8749L17.7084 41.3333C18.0834 41.5208 18.5001 41.6249 18.9167 41.6249C19.3959 41.6249 19.8959 41.4791 20.3334 41.2291C21.1251 40.7291 21.6042 39.8749 21.6042 38.9374V28.6041C21.5834 26.8124 20.5834 25.2083 19.0001 24.3958Z" fill="#6FCF97"/>
<path d="M41.6667 21.3333V26.4583C40.6667 26.1666 39.6042 26.0416 38.5417 26.0416C35.7083 26.0416 32.9375 27.0208 30.75 28.7708C27.75 31.1249 26.0417 34.6874 26.0417 38.5416C26.0417 39.5624 26.1667 40.5833 26.4375 41.5624C26.125 41.5208 25.8125 41.3958 25.5208 41.2083C24.7292 40.7291 24.25 39.8749 24.25 38.9374V28.6041C24.25 26.8124 25.25 25.2083 26.8333 24.3958L37.7708 18.9374C38.625 18.4999 39.5833 18.5624 40.3958 19.0416C41.1875 19.5416 41.6667 20.3958 41.6667 21.3333Z" fill="#6FCF97"/>
<path d="M45.7917 32.6459C44.0834 30.5417 41.4792 29.2084 38.5417 29.2084C36.3334 29.2084 34.2917 29.9792 32.6876 31.2709C30.5209 32.9792 29.1667 35.625 29.1667 38.5834C29.1667 40.3334 29.6667 42 30.5209 43.4167C31.0834 44.3542 31.7917 45.1667 32.6251 45.8334H32.6459C34.2501 47.1667 36.3126 47.9584 38.5417 47.9584C40.9167 47.9584 43.0626 47.0834 44.7084 45.625C45.4376 45 46.0626 44.25 46.5626 43.4167C47.4167 42 47.9167 40.3334 47.9167 38.5834C47.9167 36.3334 47.1251 34.25 45.7917 32.6459ZM43.2501 37.4167L38.2501 42.0417C37.9584 42.3125 37.5626 42.4584 37.1876 42.4584C36.7917 42.4584 36.3959 42.3125 36.0834 42L33.7709 39.6875C33.1667 39.0834 33.1667 38.0834 33.7709 37.4792C34.3751 36.875 35.3751 36.875 35.9792 37.4792L37.2292 38.7292L41.1251 35.125C41.7501 34.5417 42.7501 34.5834 43.3334 35.2084C43.9376 35.8542 43.8959 36.8334 43.2501 37.4167Z" fill="#6FCF97"/>
</svg>
