<svg width="58" height="58" viewBox="0 0 58 58" fill="none" xmlns="http://www.w3.org/2000/svg">
<rect width="58" height="58" rx="16" fill="#1E7FF0"/>
<path d="M34.6 22.31L28.95 19.27C28.35 18.95 27.64 18.95 27.04 19.27L21.4 22.31C20.99 22.54 20.73 22.98 20.73 23.46C20.73 23.95 20.98 24.39 21.4 24.61L27.05 27.65C27.35 27.81 27.68 27.89 28 27.89C28.32 27.89 28.66 27.81 28.95 27.65L34.6 24.61C35.01 24.39 35.27 23.95 35.27 23.46C35.27 22.98 35.01 22.54 34.6 22.31Z" fill="white"/>
<path d="M26.12 28.71L20.87 26.09C20.46 25.88 20 25.91 19.61 26.14C19.23 26.38 19 26.79 19 27.24V32.2C19 33.06 19.48 33.83 20.25 34.22L25.5 36.84C25.68 36.93 25.88 36.98 26.08 36.98C26.31 36.98 26.55 36.91 26.76 36.79C27.14 36.55 27.37 36.14 27.37 35.69V30.73C27.36 29.87 26.88 29.1 26.12 28.71Z" fill="white"/>
<path d="M36.9999 27.24V29.7C36.5199 29.56 36.0099 29.5 35.4999 29.5C34.1399 29.5 32.8099 29.97 31.7599 30.81C30.3199 31.94 29.4999 33.65 29.4999 35.5C29.4999 35.99 29.5599 36.48 29.6899 36.95C29.5399 36.93 29.3899 36.87 29.2499 36.78C28.8699 36.55 28.6399 36.14 28.6399 35.69V30.73C28.6399 29.87 29.1199 29.1 29.8799 28.71L35.1299 26.09C35.5399 25.88 35.9999 25.91 36.3899 26.14C36.7699 26.38 36.9999 26.79 36.9999 27.24Z" fill="white"/>
<path d="M38.98 32.67C38.16 31.66 36.91 31.02 35.5 31.02C34.44 31.02 33.46 31.39 32.69 32.01C31.65 32.83 31 34.1 31 35.52C31 36.36 31.24 37.16 31.65 37.84C31.92 38.29 32.26 38.68 32.66 39H32.67C33.44 39.64 34.43 40.02 35.5 40.02C36.64 40.02 37.67 39.6 38.46 38.9C38.81 38.6 39.11 38.24 39.35 37.84C39.76 37.16 40 36.36 40 35.52C40 34.44 39.62 33.44 38.98 32.67ZM37.76 34.96L35.36 37.18C35.22 37.31 35.03 37.38 34.85 37.38C34.66 37.38 34.47 37.31 34.32 37.16L33.21 36.05C32.92 35.76 32.92 35.28 33.21 34.99C33.5 34.7 33.98 34.7 34.27 34.99L34.87 35.59L36.74 33.86C37.04 33.58 37.52 33.6 37.8 33.9C38.09 34.21 38.07 34.68 37.76 34.96Z" fill="white"/>
</svg>
