<svg width="58" height="58" viewBox="0 0 58 58" fill="none" xmlns="http://www.w3.org/2000/svg">
<rect width="58" height="58" rx="16" fill="#1E7FF0"/>
<path d="M26 19C23.38 19 21.25 21.13 21.25 23.75C21.25 26.32 23.26 28.4 25.88 28.49C25.96 28.48 26.04 28.48 26.1 28.49C26.12 28.49 26.13 28.49 26.15 28.49C26.16 28.49 26.16 28.49 26.17 28.49C28.73 28.4 30.74 26.32 30.75 23.75C30.75 21.13 28.62 19 26 19Z" fill="white"/>
<path d="M31.08 31.15C28.29 29.29 23.74 29.29 20.93 31.15C19.66 32 18.96 33.15 18.96 34.38C18.96 35.61 19.66 36.75 20.92 37.59C22.32 38.53 24.16 39 26 39C27.84 39 29.68 38.53 31.08 37.59C32.34 36.74 33.04 35.6 33.04 34.36C33.03 33.13 32.34 31.99 31.08 31.15Z" fill="white"/>
<path d="M36.9901 24.34C37.1501 26.28 35.7701 27.98 33.8601 28.21C33.8501 28.21 33.8501 28.21 33.8401 28.21H33.8101C33.7501 28.21 33.6901 28.21 33.6401 28.23C32.6701 28.28 31.7801 27.97 31.1101 27.4C32.1401 26.48 32.7301 25.1 32.6101 23.6C32.5401 22.79 32.2601 22.05 31.8401 21.42C32.2201 21.23 32.6601 21.11 33.1101 21.07C35.0701 20.9 36.8201 22.36 36.9901 24.34Z" fill="white"/>
<path d="M38.99 33.59C38.91 34.56 38.29 35.4 37.25 35.97C36.25 36.52 34.99 36.78 33.74 36.75C34.46 36.1 34.88 35.29 34.96 34.43C35.06 33.19 34.47 32 33.29 31.05C32.62 30.52 31.84 30.1 30.99 29.79C33.2 29.15 35.98 29.58 37.69 30.96C38.61 31.7 39.08 32.63 38.99 33.59Z" fill="white"/>
</svg>
