<svg width="58" height="58" viewBox="0 0 58 58" fill="none" xmlns="http://www.w3.org/2000/svg">
<rect width="58" height="58" rx="16" fill="#1E7FF0"/>
<path d="M36.97 25.75H34.03C32.76 25.75 32 24.99 32 23.72V20.78C32 19.51 32.76 18.75 34.03 18.75H36.97C38.24 18.75 39 19.51 39 20.78V23.72C39 24.99 38.24 25.75 36.97 25.75ZM37.19 22.44C37.07 22.32 36.91 22.26 36.75 22.26C36.59 22.26 36.43 22.32 36.31 22.44L36.13 22.62V20.38C36.13 20.03 35.85 19.75 35.5 19.75C35.15 19.75 34.87 20.03 34.87 20.38V22.62L34.69 22.44C34.45 22.2 34.05 22.2 33.81 22.44C33.57 22.68 33.57 23.08 33.81 23.32L35.06 24.57C35.11 24.62 35.18 24.66 35.25 24.69C35.27 24.7 35.29 24.7 35.31 24.71C35.36 24.73 35.41 24.74 35.47 24.74C35.49 24.74 35.51 24.74 35.53 24.74C35.6 24.74 35.66 24.73 35.73 24.7C35.74 24.7 35.74 24.7 35.75 24.7C35.82 24.67 35.88 24.63 35.93 24.58C35.94 24.57 35.94 24.57 35.95 24.57L37.2 23.32C37.44 23.08 37.44 22.68 37.19 22.44Z" fill="white"/>
<path d="M19 28.46V33.46C19 35.75 20.85 37.6 23.14 37.6H34.85C37.14 37.6 39 35.74 39 33.45V28.46C39 27.79 38.46 27.25 37.79 27.25H20.21C19.54 27.25 19 27.79 19 28.46ZM25 34.25H23C22.59 34.25 22.25 33.91 22.25 33.5C22.25 33.09 22.59 32.75 23 32.75H25C25.41 32.75 25.75 33.09 25.75 33.5C25.75 33.91 25.41 34.25 25 34.25ZM31.5 34.25H27.5C27.09 34.25 26.75 33.91 26.75 33.5C26.75 33.09 27.09 32.75 27.5 32.75H31.5C31.91 32.75 32.25 33.09 32.25 33.5C32.25 33.91 31.91 34.25 31.5 34.25Z" fill="white"/>
<path d="M30.5 21.61V24.54C30.5 25.21 29.96 25.75 29.29 25.75H20.21C19.53 25.75 19 25.19 19 24.52C19.01 23.39 19.46 22.36 20.21 21.61C20.96 20.86 22 20.4 23.14 20.4H29.29C29.96 20.4 30.5 20.94 30.5 21.61Z" fill="white"/>
</svg>
