<svg width="20" height="20" viewBox="0 0 20 20" fill="none" xmlns="http://www.w3.org/2000/svg">
<path d="M13.4917 1.66602H6.50841C3.47508 1.66602 1.66675 3.47435 1.66675 6.50768V13.4827C1.66675 16.5244 3.47508 18.3327 6.50841 18.3327H13.4834C16.5167 18.3327 18.3251 16.5244 18.3251 13.491V6.50768C18.3334 3.47435 16.5251 1.66602 13.4917 1.66602ZM9.12508 14.591C8.88341 14.8327 8.42508 15.066 8.09175 15.116L6.04175 15.4077C5.96675 15.416 5.89175 15.4243 5.81675 15.4243C5.47508 15.4243 5.15841 15.3077 4.93341 15.0827C4.65841 14.8077 4.54175 14.4077 4.60841 13.966L4.90008 11.916C4.95008 11.5743 5.17508 11.1243 5.42508 10.8827L9.14175 7.16602C9.20841 7.34102 9.27508 7.51602 9.36675 7.71602C9.45008 7.89102 9.54175 8.07435 9.64175 8.24102C9.72508 8.38268 9.81675 8.51602 9.89175 8.61602C9.98341 8.75768 10.0917 8.89102 10.1584 8.96602C10.2001 9.02435 10.2334 9.06602 10.2501 9.08268C10.4584 9.33268 10.7001 9.56602 10.9084 9.74102C10.9667 9.79935 11.0001 9.83268 11.0167 9.84102C11.1417 9.94102 11.2667 10.041 11.3751 10.116C11.5084 10.216 11.6417 10.3077 11.7834 10.3827C11.9501 10.4827 12.1334 10.5743 12.3167 10.666C12.5084 10.7493 12.6834 10.8243 12.8584 10.8827L9.12508 14.591ZM14.4751 9.24102L13.7084 10.016C13.6584 10.066 13.5917 10.091 13.5251 10.091C13.5001 10.091 13.4667 10.091 13.4501 10.0827C11.7584 9.59935 10.4084 8.24935 9.92508 6.55768C9.90008 6.46602 9.92508 6.36602 9.99175 6.30768L10.7667 5.53268C12.0334 4.26602 13.2417 4.29102 14.4834 5.53268C15.1167 6.16602 15.4251 6.77435 15.4251 7.40768C15.4167 8.00768 15.1084 8.60768 14.4751 9.24102Z" fill="#1E7FF0"/>
</svg>
