<svg width="46" height="46" viewBox="0 0 46 46" fill="none" xmlns="http://www.w3.org/2000/svg">
<path d="M40.3842 10.0248C37.2984 9.71815 34.2125 9.48815 31.1075 9.31565V9.29648L30.6859 6.80482C30.3984 5.04148 29.9767 2.39648 25.4917 2.39648H20.47C16.0042 2.39648 15.5825 4.92648 15.2759 6.78565L14.8734 9.23898C13.0909 9.35398 11.3084 9.46899 9.52585 9.64149L5.61585 10.0248C4.81085 10.1015 4.23585 10.8107 4.31252 11.5965C4.38918 12.3823 5.07918 12.9573 5.88418 12.8807L9.79418 12.4973C19.8375 11.5007 29.9575 11.884 40.1159 12.8998C40.1734 12.8998 40.2117 12.8998 40.2692 12.8998C40.9975 12.8998 41.63 12.344 41.7067 11.5965C41.7642 10.8107 41.1892 10.1015 40.3842 10.0248Z" fill="#FF8282"/>
<path d="M36.8576 15.601C36.3976 15.1218 35.7651 14.8535 35.1134 14.8535H10.8868C10.2351 14.8535 9.58342 15.1218 9.14259 15.601C8.70176 16.0802 8.45259 16.7318 8.49092 17.4027L9.67926 37.0677C9.89009 39.981 10.1584 43.6227 16.8476 43.6227H29.1526C35.8418 43.6227 36.1101 40.0002 36.3209 37.0677L37.5093 17.4218C37.5476 16.7318 37.2984 16.0802 36.8576 15.601ZM26.1818 34.0202H19.7993C19.0134 34.0202 18.3618 33.3685 18.3618 32.5827C18.3618 31.7968 19.0134 31.1452 19.7993 31.1452H26.1818C26.9676 31.1452 27.6193 31.7968 27.6193 32.5827C27.6193 33.3685 26.9676 34.0202 26.1818 34.0202ZM27.7918 26.3535H18.2084C17.4226 26.3535 16.7709 25.7018 16.7709 24.916C16.7709 24.1302 17.4226 23.4785 18.2084 23.4785H27.7918C28.5776 23.4785 29.2293 24.1302 29.2293 24.916C29.2293 25.7018 28.5776 26.3535 27.7918 26.3535Z" fill="#FF8282"/>
</svg>
