<svg width="53" height="53" viewBox="0 0 53 53" fill="none" xmlns="http://www.w3.org/2000/svg">
<path d="M46.3089 2.20801H39.8164C37.0118 2.20801 35.3335 3.88634 35.3335 6.69092V13.1834C35.3335 15.988 37.0118 17.6663 39.8164 17.6663H46.3089C49.1135 17.6663 50.7918 15.988 50.7918 13.1834V6.69092C50.7918 3.88634 49.1135 2.20801 46.3089 2.20801ZM46.7947 9.51759C46.5297 9.78259 46.1764 9.91509 45.8231 9.91509C45.4697 9.91509 45.1164 9.78259 44.8514 9.51759L44.4539 9.12009V14.0668C44.4539 14.8397 43.8356 15.458 43.0627 15.458C42.2897 15.458 41.6714 14.8397 41.6714 14.0668V9.12009L41.2739 9.51759C40.7439 10.0476 39.8606 10.0476 39.3306 9.51759C38.8006 8.98759 38.8006 8.10426 39.3306 7.57426L42.091 4.81384C42.2014 4.70342 42.356 4.61509 42.5106 4.54884C42.5547 4.52676 42.5989 4.52676 42.6431 4.50467C42.7535 4.46051 42.8639 4.43842 42.9964 4.43842C43.0406 4.43842 43.0847 4.43842 43.1289 4.43842C43.2835 4.43842 43.416 4.46051 43.5706 4.52676C43.5927 4.52676 43.5927 4.52676 43.6147 4.52676C43.7693 4.59301 43.9018 4.68134 44.0122 4.79176C44.0343 4.81384 44.0343 4.81384 44.0564 4.81384L46.8168 7.57426C47.3468 8.10426 47.3468 8.98759 46.7947 9.51759Z" fill="#505359"/>
<path d="M19.875 22.9228C22.7777 22.9228 25.1308 20.5697 25.1308 17.667C25.1308 14.7642 22.7777 12.4111 19.875 12.4111C16.9723 12.4111 14.6191 14.7642 14.6191 17.667C14.6191 20.5697 16.9723 22.9228 19.875 22.9228Z" fill="#505359"/>
<path d="M46.3086 17.667H45.2707V27.8474L44.9836 27.6045C43.2611 26.1249 40.4786 26.1249 38.7561 27.6045L29.5694 35.4882C27.8469 36.9678 25.0644 36.9678 23.3419 35.4882L22.5911 34.8699C21.0232 33.5007 18.5278 33.3682 16.7611 34.5607L8.50192 40.1037C8.01609 38.867 7.729 37.4316 7.729 35.7532V17.2474C7.729 11.0199 11.0194 7.72949 17.2469 7.72949H35.3332V6.69158C35.3332 5.80824 35.4878 5.05741 35.8411 4.41699H17.2469C9.20859 4.41699 4.4165 9.20907 4.4165 17.2474V35.7532C4.4165 38.1603 4.83609 40.2582 5.65317 42.0249C7.55234 46.2207 11.6157 48.5837 17.2469 48.5837H35.7528C43.7911 48.5837 48.5832 43.7916 48.5832 35.7532V17.1591C47.9428 17.5124 47.1919 17.667 46.3086 17.667Z" fill="#505359"/>
</svg>
