<svg width="145" height="33" viewBox="0 0 145 33" fill="none" xmlns="http://www.w3.org/2000/svg">
<circle cx="16.875" cy="16.5" r="16.5" fill="#1E7FF0"/>
<path d="M15.0305 15.6491L13.8217 23H10.8569L12.9478 10.4545H15.782L15.4226 12.5863H15.5778C15.9698 11.8839 16.5198 11.3258 17.2276 10.9119C17.9355 10.4981 18.7604 10.2912 19.7024 10.2912C20.5573 10.2912 21.276 10.4763 21.8587 10.8466C22.4413 11.2114 22.8551 11.7478 23.1001 12.4556C23.3452 13.158 23.3833 14.0102 23.2145 15.0121L21.875 23H18.9183L20.168 15.4695C20.3095 14.6364 20.2034 13.983 19.8494 13.5092C19.5009 13.0301 18.9401 12.7905 18.1669 12.7905C17.6496 12.7905 17.1732 12.9048 16.7376 13.1335C16.302 13.3568 15.9344 13.6808 15.6349 14.1055C15.3409 14.5302 15.1394 15.0447 15.0305 15.6491Z" fill="white"/>
<path d="M45.097 15.136V24H42.841V22.88C42.553 23.264 42.1743 23.568 41.705 23.792C41.2463 24.0053 40.745 24.112 40.201 24.112C39.5077 24.112 38.8943 23.968 38.361 23.68C37.8277 23.3813 37.4063 22.9493 37.097 22.384C36.7983 21.808 36.649 21.1253 36.649 20.336V15.136H38.889V20.016C38.889 20.72 39.065 21.264 39.417 21.648C39.769 22.0213 40.249 22.208 40.857 22.208C41.4757 22.208 41.961 22.0213 42.313 21.648C42.665 21.264 42.841 20.72 42.841 20.016V15.136H45.097ZM46.7311 19.536C46.7311 18.64 46.9071 17.8453 47.2591 17.152C47.6218 16.4587 48.1071 15.9253 48.7151 15.552C49.3338 15.1787 50.0218 14.992 50.7791 14.992C51.4405 14.992 52.0165 15.1253 52.5071 15.392C53.0085 15.6587 53.4085 15.9947 53.7071 16.4V15.136H55.9631V24H53.7071V22.704C53.4191 23.12 53.0191 23.4667 52.5071 23.744C52.0058 24.0107 51.4245 24.144 50.7631 24.144C50.0165 24.144 49.3338 23.952 48.7151 23.568C48.1071 23.184 47.6218 22.6453 47.2591 21.952C46.9071 21.248 46.7311 20.4427 46.7311 19.536ZM53.7071 19.568C53.7071 19.024 53.6005 18.56 53.3871 18.176C53.1738 17.7813 52.8858 17.4827 52.5231 17.28C52.1605 17.0667 51.7711 16.96 51.3551 16.96C50.9391 16.96 50.5551 17.0613 50.2031 17.264C49.8511 17.4667 49.5631 17.7653 49.3391 18.16C49.1258 18.544 49.0191 19.0027 49.0191 19.536C49.0191 20.0693 49.1258 20.5387 49.3391 20.944C49.5631 21.3387 49.8511 21.6427 50.2031 21.856C50.5658 22.0693 50.9498 22.176 51.3551 22.176C51.7711 22.176 52.1605 22.0747 52.5231 21.872C52.8858 21.6587 53.1738 21.36 53.3871 20.976C53.6005 20.5813 53.7071 20.112 53.7071 19.568ZM63.0629 15.008C64.1189 15.008 64.9722 15.344 65.6229 16.016C66.2735 16.6773 66.5989 17.6053 66.5989 18.8V24H64.3589V19.104C64.3589 18.4 64.1829 17.8613 63.8309 17.488C63.4789 17.104 62.9989 16.912 62.3909 16.912C61.7722 16.912 61.2815 17.104 60.9189 17.488C60.5669 17.8613 60.3909 18.4 60.3909 19.104V24H58.1509V15.136H60.3909V16.24C60.6895 15.856 61.0682 15.5573 61.5269 15.344C61.9962 15.12 62.5082 15.008 63.0629 15.008ZM72.121 24.144C71.3957 24.144 70.745 24.016 70.169 23.76C69.593 23.4933 69.1343 23.136 68.793 22.688C68.4623 22.24 68.281 21.744 68.249 21.2H70.505C70.5477 21.5413 70.713 21.824 71.001 22.048C71.2997 22.272 71.6677 22.384 72.105 22.384C72.5317 22.384 72.8623 22.2987 73.097 22.128C73.3423 21.9573 73.465 21.7387 73.465 21.472C73.465 21.184 73.3157 20.9707 73.017 20.832C72.729 20.6827 72.265 20.5227 71.625 20.352C70.9637 20.192 70.4197 20.0267 69.993 19.856C69.577 19.6853 69.2143 19.424 68.905 19.072C68.6063 18.72 68.457 18.2453 68.457 17.648C68.457 17.1573 68.5957 16.7093 68.873 16.304C69.161 15.8987 69.5663 15.5787 70.089 15.344C70.6223 15.1093 71.2463 14.992 71.961 14.992C73.017 14.992 73.8597 15.2587 74.489 15.792C75.1183 16.3147 75.465 17.024 75.529 17.92H73.385C73.353 17.568 73.2037 17.2907 72.937 17.088C72.681 16.8747 72.3343 16.768 71.897 16.768C71.4917 16.768 71.177 16.8427 70.953 16.992C70.7397 17.1413 70.633 17.3493 70.633 17.616C70.633 17.9147 70.7823 18.144 71.081 18.304C71.3797 18.4533 71.8437 18.608 72.473 18.768C73.113 18.928 73.641 19.0933 74.057 19.264C74.473 19.4347 74.8303 19.7013 75.129 20.064C75.4383 20.416 75.5983 20.8853 75.609 21.472C75.609 21.984 75.465 22.4427 75.177 22.848C74.8997 23.2533 74.4943 23.5733 73.961 23.808C73.4383 24.032 72.825 24.144 72.121 24.144ZM76.8717 19.536C76.8717 18.64 77.0477 17.8453 77.3997 17.152C77.7624 16.4587 78.2478 15.9253 78.8558 15.552C79.4744 15.1787 80.1624 14.992 80.9198 14.992C81.5811 14.992 82.1571 15.1253 82.6478 15.392C83.1491 15.6587 83.5491 15.9947 83.8478 16.4V15.136H86.1038V24H83.8478V22.704C83.5598 23.12 83.1598 23.4667 82.6478 23.744C82.1464 24.0107 81.5651 24.144 80.9038 24.144C80.1571 24.144 79.4744 23.952 78.8558 23.568C78.2478 23.184 77.7624 22.6453 77.3997 21.952C77.0477 21.248 76.8717 20.4427 76.8717 19.536ZM83.8478 19.568C83.8478 19.024 83.7411 18.56 83.5278 18.176C83.3144 17.7813 83.0264 17.4827 82.6638 17.28C82.3011 17.0667 81.9118 16.96 81.4958 16.96C81.0798 16.96 80.6958 17.0613 80.3438 17.264C79.9918 17.4667 79.7038 17.7653 79.4798 18.16C79.2664 18.544 79.1598 19.0027 79.1598 19.536C79.1598 20.0693 79.2664 20.5387 79.4798 20.944C79.7038 21.3387 79.9918 21.6427 80.3438 21.856C80.7064 22.0693 81.0904 22.176 81.4958 22.176C81.9118 22.176 82.3011 22.0747 82.6638 21.872C83.0264 21.6587 83.3144 21.36 83.5278 20.976C83.7411 20.5813 83.8478 20.112 83.8478 19.568ZM99.704 12.832V14.64H96.728V24H94.488V14.64H91.512V12.832H99.704ZM109.578 19.376C109.578 19.696 109.557 19.984 109.514 20.24H103.034C103.088 20.88 103.312 21.3813 103.706 21.744C104.101 22.1067 104.586 22.288 105.162 22.288C105.994 22.288 106.586 21.9307 106.938 21.216H109.354C109.098 22.0693 108.608 22.7733 107.882 23.328C107.157 23.872 106.266 24.144 105.21 24.144C104.357 24.144 103.589 23.9573 102.906 23.584C102.234 23.2 101.706 22.6613 101.322 21.968C100.949 21.2747 100.762 20.4747 100.762 19.568C100.762 18.6507 100.949 17.8453 101.322 17.152C101.696 16.4587 102.218 15.9253 102.89 15.552C103.562 15.1787 104.336 14.992 105.21 14.992C106.053 14.992 106.805 15.1733 107.466 15.536C108.138 15.8987 108.656 16.416 109.018 17.088C109.392 17.7493 109.578 18.512 109.578 19.376ZM107.258 18.736C107.248 18.16 107.04 17.7013 106.634 17.36C106.229 17.008 105.733 16.832 105.146 16.832C104.592 16.832 104.122 17.0027 103.738 17.344C103.365 17.6747 103.136 18.1387 103.05 18.736H107.258ZM116.461 24L113.453 20.224V24H111.213V12.16H113.453V18.896L116.429 15.136H119.341L115.437 19.584L119.373 24H116.461ZM125.469 15.008C126.525 15.008 127.378 15.344 128.029 16.016C128.68 16.6773 129.005 17.6053 129.005 18.8V24H126.765V19.104C126.765 18.4 126.589 17.8613 126.237 17.488C125.885 17.104 125.405 16.912 124.797 16.912C124.178 16.912 123.688 17.104 123.325 17.488C122.973 17.8613 122.797 18.4 122.797 19.104V24H120.557V15.136H122.797V16.24C123.096 15.856 123.474 15.5573 123.933 15.344C124.402 15.12 124.914 15.008 125.469 15.008ZM132.271 14.08C131.877 14.08 131.546 13.9573 131.279 13.712C131.023 13.456 130.895 13.1413 130.895 12.768C130.895 12.3947 131.023 12.0853 131.279 11.84C131.546 11.584 131.877 11.456 132.271 11.456C132.666 11.456 132.991 11.584 133.247 11.84C133.514 12.0853 133.647 12.3947 133.647 12.768C133.647 13.1413 133.514 13.456 133.247 13.712C132.991 13.9573 132.666 14.08 132.271 14.08ZM133.375 15.136V24H131.135V15.136H133.375ZM140.836 24L137.828 20.224V24H135.588V12.16H137.828V18.896L140.804 15.136H143.716L139.812 19.584L143.748 24H140.836Z" fill="#121926"/>
</svg>
