<svg width="720" height="1024" viewBox="0 0 720 1024" fill="none" xmlns="http://www.w3.org/2000/svg">
<g clip-path="url(#clip0_2_3)">
<rect width="720" height="1024" fill="#1E7FF0"/>
<path d="M757.48 166.192C650.566 130.459 517.104 239.525 465.777 345.829C406.641 468.339 470.882 557.587 398.262 637.07C332.021 709.617 244.626 672.327 200.294 727.836C159.556 778.851 165.887 894.818 345.841 1170.32" stroke="url(#paint0_linear_2_3)" stroke-miterlimit="10"/>
<path d="M360.638 1168.82C183.456 896.96 175.167 779.953 214.033 726.995C242.897 687.774 292.369 691.749 341.328 674.192C366.268 665.68 388.703 651.108 406.617 631.785C465.355 568.518 439.031 500.275 457.74 410.735C462.447 387.882 469.825 365.661 479.722 344.531C529.66 236.998 653.891 125.294 758.247 157.043" stroke="url(#paint1_linear_2_3)" stroke-miterlimit="10"/>
<path d="M375.409 1167.29C201.017 899.075 190.762 781.09 227.712 726.317C254.877 686.057 302.872 688.071 350.227 669.629C374.771 660.419 396.886 645.726 414.886 626.672C473.454 564.654 451.916 498.815 471.728 409.48C476.72 386.756 484.052 364.61 493.607 343.397C542.492 234.78 657.138 120.284 758.937 148.049" stroke="url(#paint2_linear_2_3)" stroke-miterlimit="10"/>
<path d="M390.137 1165.76C218.569 901.251 206.391 782.244 241.408 725.563C266.925 684.246 313.375 684.35 359.169 664.981C383.288 655.104 405.083 640.31 423.164 621.542C481.596 560.705 464.749 497.416 485.724 408.208C490.96 385.582 498.24 363.478 507.474 342.169C555.107 232.391 660.359 115.197 759.6 138.979" stroke="url(#paint3_linear_2_3)" stroke-miterlimit="10"/>
<path d="M404.951 1164.27C236.121 903.384 222.02 783.442 255.129 724.8C278.991 682.486 323.938 680.595 368.111 660.289C391.819 649.737 413.325 634.81 431.502 616.291C489.798 556.634 477.685 495.853 499.823 406.729C505.33 384.265 512.559 362.259 521.445 340.905C567.835 229.95 663.709 110.067 760.402 129.847" stroke="url(#paint4_linear_2_3)" stroke-miterlimit="10"/>
<path d="M419.697 1162.83C253.664 905.535 236.002 783.755 268.834 724.028C292.221 681.371 334.381 676.779 377.053 655.641C400.32 644.409 421.536 629.35 439.814 611.093C497.975 552.616 490.579 494.376 513.837 405.466C519.577 383.126 526.75 361.18 535.312 339.763C580.391 227.595 666.939 105.049 761.091 120.854" stroke="url(#paint5_linear_2_3)" stroke-miterlimit="10"/>
<path d="M434.52 1161.24C271.233 907.676 253.399 785.896 282.443 723.23C303.174 679.078 344.944 672.98 386.021 650.983C408.832 639.09 429.764 623.899 448.143 605.902C506.168 548.605 503.498 492.847 527.885 404.133C533.88 381.927 541.01 360.043 549.248 338.568C593.085 225.223 670.186 99.9529 761.833 111.8" stroke="url(#paint6_linear_2_3)" stroke-miterlimit="10"/>
<path d="M449.3 1159.73C288.759 909.861 268.985 787.094 296.251 722.51C315.24 677.362 355.369 669.07 394.954 646.309C417.288 633.763 437.937 618.429 456.404 600.678C514.302 544.587 516.391 491.328 541.864 402.767C547.813 382.171 554.535 360.369 563.098 337.331C605.649 222.765 673.484 94.8832 762.539 102.729" stroke="url(#paint7_linear_2_3)" stroke-miterlimit="10"/>
<path d="M464.079 1158.23C306.346 911.968 284.761 788.386 309.912 721.738C327.323 675.654 365.82 665.151 403.887 641.591C425.738 628.388 446.13 612.911 464.724 595.418C522.487 540.508 529.267 489.756 555.92 401.374C562.119 380.796 568.85 359.062 577.034 336.051C618.239 220.427 676.765 89.8045 763.246 93.6585" stroke="url(#paint8_linear_2_3)" stroke-miterlimit="10"/>
<path d="M478.851 1156.7C323.898 914.101 300.502 789.66 323.669 720.991C339.51 673.997 376.348 661.163 412.829 636.985C434.177 623.147 454.317 607.532 473.036 590.305C530.672 536.558 542.186 488.313 569.891 400.068C576.297 379.592 583.036 357.841 590.859 334.865C630.76 217.882 679.944 84.6741 763.884 84.5528" stroke="url(#paint9_linear_2_3)" stroke-miterlimit="10"/>
<path d="M493.631 1155.19C341.441 916.251 316.278 790.952 337.347 720.271C351.636 672.375 386.747 657.261 421.78 632.363C442.597 617.88 462.486 602.109 481.331 585.141C538.823 532.591 555.054 486.845 583.991 398.804C590.681 378.362 597.377 356.654 604.847 333.739C643.384 215.519 683.285 79.6903 764.686 75.5508" stroke="url(#paint10_linear_2_3)" stroke-miterlimit="10"/>
<path d="M508.41 1153.69C359.01 918.393 332.071 792.21 351.069 719.465C363.831 670.658 397.189 653.23 430.739 627.68C450.017 612.988 469.613 597.874 489.66 579.908C546.999 528.53 567.981 485.3 598.038 397.429C604.979 377.047 611.64 355.365 618.783 332.459C655.957 213 686.584 74.5344 765.435 66.437" stroke="url(#paint11_linear_2_3)" stroke-miterlimit="10"/>
<path d="M523.191 1152.18C376.631 920.56 347.838 793.604 364.782 718.718C376.001 668.993 407.597 649.182 439.69 623.013C458.63 607.573 477.976 592.269 497.973 574.708C555.227 524.536 580.866 483.796 612.069 396.087C619.277 375.774 625.913 354.101 632.667 331.281C668.435 210.585 689.831 69.4811 766.143 57.4085" stroke="url(#paint12_linear_2_3)" stroke-miterlimit="10"/>
<path d="M537.953 1150.71C394.123 922.685 363.717 794.819 378.495 717.973C388.222 667.354 417.987 645.125 448.657 618.356C467.235 602.133 486.339 586.666 506.268 569.588C563.343 520.553 593.751 482.38 626.134 394.764C633.583 374.485 640.176 352.854 646.603 330.088C680.939 208.118 693.095 64.3943 766.866 48.3466" stroke="url(#paint13_linear_2_3)" stroke-miterlimit="10"/>
<path d="M552.742 1149.14C411.675 924.817 379.571 796.17 392.2 717.2C400.426 665.662 428.335 641.025 457.582 613.698C475.779 596.683 494.694 581.036 514.597 564.31C571.52 516.49 606.662 480.782 640.148 393.414C648.012 372.244 654.786 350.686 660.445 328.824C693.417 205.659 696.42 59.2717 767.574 39.2749" stroke="url(#paint14_linear_2_3)" stroke-miterlimit="10"/>
<path d="M567.522 1147.64C429.244 926.959 395.441 797.359 405.87 716.497C412.613 664.048 438.639 636.968 466.541 609.015C484.341 591.2 503.048 575.406 522.909 559.112C579.705 512.455 619.572 479.271 654.162 392.107C662.278 371.086 669.032 349.563 674.381 327.673C705.792 203.15 699.658 54.2365 768.237 30.1612" stroke="url(#paint15_linear_2_3)" stroke-miterlimit="10"/>
<path d="M582.301 1146.13C446.787 929.109 411.432 798.607 419.6 715.674C424.877 662.366 448.96 632.791 475.466 604.358C492.85 585.733 511.402 569.82 531.212 553.93C587.864 508.471 632.457 477.768 668.209 390.732C676.555 369.847 683.272 348.348 688.3 326.427C718.278 200.718 702.939 49.1581 769.03 21.1334" stroke="url(#paint16_linear_2_3)" stroke-miterlimit="10"/>
<path d="M597.09 1144.61C464.426 931.285 427.303 799.967 433.313 714.927C437.132 660.657 459.221 628.648 484.408 599.709C501.377 580.189 519.748 564.207 539.525 548.731C596.006 504.434 645.359 476.274 682.258 389.399C690.821 368.649 697.501 347.17 702.219 325.223C730.696 198.251 706.203 44.0704 769.754 12.0705" stroke="url(#paint17_linear_2_3)" stroke-miterlimit="10"/>
<path d="M611.87 1143.1C481.865 933.47 443.259 801.242 447.086 714.19C449.465 659.009 469.525 624.549 493.462 595.095C510.008 574.826 528.232 558.621 547.94 543.584C604.32 500.485 658.373 474.814 696.357 388.093C705.138 367.477 711.783 346.017 716.19 324.046C743.148 195.802 709.631 38.9574 770.547 3.04284" stroke="url(#paint18_linear_2_3)" stroke-miterlimit="10"/>
<path d="M626.65 1141.6C499.469 935.543 459.225 802.499 460.731 713.41C461.669 657.275 479.657 620.363 502.309 590.378C518.302 569.232 536.483 552.983 556.183 538.351C612.419 496.449 671.188 473.277 710.353 386.735C719.36 366.259 725.972 344.811 730.057 322.818C755.437 193.292 712.749 33.9051 771.202 -6.05365" stroke="url(#paint19_linear_2_3)" stroke-miterlimit="10"/>
<path d="M641.421 1140.06C517.021 937.675 475.276 803.799 474.401 712.706C473.924 655.653 489.797 616.289 511.217 585.798C526.674 563.782 544.794 547.439 564.401 533.212C620.527 492.482 684.03 471.817 724.315 385.445C733.532 365.097 740.113 343.656 743.899 321.64C767.519 190.852 715.996 28.8949 771.892 -15.0906" stroke="url(#paint20_linear_2_3)" stroke-miterlimit="10"/>
<path d="M656.192 1138.58C458.784 816.049 467.492 661.874 520.201 581.063C577.738 492.846 682.463 500.382 738.397 384.045C803.994 247.563 710.255 31.8681 772.633 -24.1867" stroke="url(#paint21_linear_2_3)" stroke-miterlimit="10"/>
</g>
<defs>
<linearGradient id="paint0_linear_2_3" x1="292.172" y1="539.079" x2="587.013" y2="685.854" gradientUnits="userSpaceOnUse">
<stop stop-color="white" stop-opacity="0.08"/>
<stop offset="1" stop-color="white" stop-opacity="0"/>
</linearGradient>
<linearGradient id="paint1_linear_2_3" x1="307.059" y1="537.293" x2="601.943" y2="684.09" gradientUnits="userSpaceOnUse">
<stop stop-color="white" stop-opacity="0.08"/>
<stop offset="1" stop-color="white" stop-opacity="0"/>
</linearGradient>
<linearGradient id="paint2_linear_2_3" x1="321.827" y1="535.533" x2="616.804" y2="682.377" gradientUnits="userSpaceOnUse">
<stop stop-color="white" stop-opacity="0.08"/>
<stop offset="1" stop-color="white" stop-opacity="0"/>
</linearGradient>
<linearGradient id="paint3_linear_2_3" x1="336.488" y1="533.7" x2="631.64" y2="680.63" gradientUnits="userSpaceOnUse">
<stop stop-color="white" stop-opacity="0.08"/>
<stop offset="1" stop-color="white" stop-opacity="0"/>
</linearGradient>
<linearGradient id="paint4_linear_2_3" x1="351.078" y1="531.766" x2="646.587" y2="678.874" gradientUnits="userSpaceOnUse">
<stop stop-color="white" stop-opacity="0.08"/>
<stop offset="1" stop-color="white" stop-opacity="0"/>
</linearGradient>
<linearGradient id="paint5_linear_2_3" x1="365.413" y1="529.845" x2="661.444" y2="677.213" gradientUnits="userSpaceOnUse">
<stop stop-color="white" stop-opacity="0.08"/>
<stop offset="1" stop-color="white" stop-opacity="0"/>
</linearGradient>
<linearGradient id="paint6_linear_2_3" x1="379.717" y1="527.769" x2="676.357" y2="675.44" gradientUnits="userSpaceOnUse">
<stop stop-color="white" stop-opacity="0.08"/>
<stop offset="1" stop-color="white" stop-opacity="0"/>
</linearGradient>
<linearGradient id="paint7_linear_2_3" x1="393.978" y1="525.725" x2="691.249" y2="673.71" gradientUnits="userSpaceOnUse">
<stop stop-color="white" stop-opacity="0.08"/>
<stop offset="1" stop-color="white" stop-opacity="0"/>
</linearGradient>
<linearGradient id="paint8_linear_2_3" x1="407.966" y1="523.545" x2="706.14" y2="671.98" gradientUnits="userSpaceOnUse">
<stop stop-color="white" stop-opacity="0.08"/>
<stop offset="1" stop-color="white" stop-opacity="0"/>
</linearGradient>
<linearGradient id="paint9_linear_2_3" x1="421.892" y1="521.324" x2="721.019" y2="670.232" gradientUnits="userSpaceOnUse">
<stop stop-color="white" stop-opacity="0.08"/>
<stop offset="1" stop-color="white" stop-opacity="0"/>
</linearGradient>
<linearGradient id="paint10_linear_2_3" x1="435.592" y1="519.012" x2="735.906" y2="668.511" gradientUnits="userSpaceOnUse">
<stop stop-color="white" stop-opacity="0.08"/>
<stop offset="1" stop-color="white" stop-opacity="0"/>
</linearGradient>
<linearGradient id="paint11_linear_2_3" x1="449.127" y1="516.574" x2="750.81" y2="666.756" gradientUnits="userSpaceOnUse">
<stop stop-color="white" stop-opacity="0.08"/>
<stop offset="1" stop-color="white" stop-opacity="0"/>
</linearGradient>
<linearGradient id="paint12_linear_2_3" x1="462.438" y1="514.078" x2="765.693" y2="665.042" gradientUnits="userSpaceOnUse">
<stop stop-color="white" stop-opacity="0.08"/>
<stop offset="1" stop-color="white" stop-opacity="0"/>
</linearGradient>
<linearGradient id="paint13_linear_2_3" x1="475.53" y1="511.474" x2="780.576" y2="663.33" gradientUnits="userSpaceOnUse">
<stop stop-color="white" stop-opacity="0.08"/>
<stop offset="1" stop-color="white" stop-opacity="0"/>
</linearGradient>
<linearGradient id="paint14_linear_2_3" x1="488.344" y1="508.677" x2="795.463" y2="661.565" gradientUnits="userSpaceOnUse">
<stop stop-color="white" stop-opacity="0.08"/>
<stop offset="1" stop-color="white" stop-opacity="0"/>
</linearGradient>
<linearGradient id="paint15_linear_2_3" x1="500.848" y1="505.749" x2="810.359" y2="659.826" gradientUnits="userSpaceOnUse">
<stop stop-color="white" stop-opacity="0.08"/>
<stop offset="1" stop-color="white" stop-opacity="0"/>
</linearGradient>
<linearGradient id="paint16_linear_2_3" x1="513.005" y1="502.657" x2="825.25" y2="658.097" gradientUnits="userSpaceOnUse">
<stop stop-color="white" stop-opacity="0.08"/>
<stop offset="1" stop-color="white" stop-opacity="0"/>
</linearGradient>
<linearGradient id="paint17_linear_2_3" x1="516.674" y1="495.329" x2="840.146" y2="656.358" gradientUnits="userSpaceOnUse">
<stop stop-color="white" stop-opacity="0.08"/>
<stop offset="1" stop-color="white" stop-opacity="0"/>
</linearGradient>
<linearGradient id="paint18_linear_2_3" x1="519.587" y1="487.637" x2="855.037" y2="654.628" gradientUnits="userSpaceOnUse">
<stop stop-color="white" stop-opacity="0.08"/>
<stop offset="1" stop-color="white" stop-opacity="0"/>
</linearGradient>
<linearGradient id="paint19_linear_2_3" x1="521.963" y1="479.677" x2="869.929" y2="652.898" gradientUnits="userSpaceOnUse">
<stop stop-color="white" stop-opacity="0.08"/>
<stop offset="1" stop-color="white" stop-opacity="0"/>
</linearGradient>
<linearGradient id="paint20_linear_2_3" x1="524.08" y1="471.598" x2="884.799" y2="651.168" gradientUnits="userSpaceOnUse">
<stop stop-color="white" stop-opacity="0.08"/>
<stop offset="1" stop-color="white" stop-opacity="0"/>
</linearGradient>
<linearGradient id="paint21_linear_2_3" x1="525.946" y1="463.374" x2="899.694" y2="649.43" gradientUnits="userSpaceOnUse">
<stop stop-color="white" stop-opacity="0.08"/>
<stop offset="1" stop-color="white" stop-opacity="0"/>
</linearGradient>
<clipPath id="clip0_2_3">
<rect width="720" height="1024" fill="white"/>
</clipPath>
</defs>
</svg>
